<svg viewBox="1 -83 511.999 511" xmlns="http://www.w3.org/2000/svg"><path d="m485.613281 218.882812c3.269531-1.019531 6.089844-3.203124 7.914063-6.246093 2.539062-4.238281 2.703125-9.382813.433594-13.761719-.433594-.835938-.882813-1.660156-1.34375-2.472656-.136719-.242188-.285157-.476563-.425782-.71875-.328125-.5625-.65625-1.125-.996094-1.675782-.191406-.308593-.394531-.609374-.589843-.914062-.300781-.472656-.601563-.945312-.914063-1.40625-.226562-.332031-.460937-.65625-.691406-.984375-.296875-.425781-.589844-.847656-.894531-1.265625-.25-.339844-.507813-.675781-.765625-1.011719-.296875-.390625-.589844-.78125-.894532-1.164062-.273437-.34375-.550781-.679688-.832031-1.015625-.296875-.363282-.597656-.730469-.902343-1.085938-.292969-.339844-.589844-.675781-.890626-1.007812-.304687-.34375-.609374-.6875-.921874-1.023438-.308594-.332031-.621094-.660156-.9375-.988281-.3125-.324219-.621094-.644531-.9375-.960937-.328126-.328126-.660157-.652344-.996094-.972657-.3125-.304687-.632813-.605469-.953125-.90625-.34375-.316406-.691407-.632812-1.039063-.945312-.320312-.285157-.648437-.570313-.972656-.851563-.359375-.308594-.722656-.617187-1.085938-.917968-.328124-.269532-.660156-.539063-.992187-.804688-.375-.296875-.75-.59375-1.128906-.882812-.332031-.257813-.671875-.507813-1.007813-.757813-.386718-.285156-.777344-.570313-1.171875-.847656-.339843-.242188-.683593-.476563-1.027343-.710938-.402344-.273437-.800782-.546875-1.207032-.816406-.347656-.222656-.695312-.441406-1.046875-.660156-.414062-.261719-.828125-.527344-1.246093-.777344-.347657-.210937-.703126-.414063-1.054688-.617187-.429688-.25-.859375-.5-1.292969-.742188-.351562-.191406-.707031-.375-1.0625-.5625-.441406-.238281-.886719-.476562-1.335937-.707031-.347656-.175781-.707032-.34375-1.0625-.515625-.457032-.222656-.914063-.453125-1.382813-.667969-.339843-.15625-.6875-.300781-1.035156-.457031-.484375-.214844-.964844-.433594-1.457031-.636719-.167969-.070313-.34375-.132813-.511719-.203125-1.089844-.445312-2.195313-.863281-3.308594-1.261719-.410156-.144531-.816406-.296875-1.230469-.433593-.429687-.148438-.867187-.277344-1.304687-.414063-.4375-.140625-.878906-.285156-1.324219-.417969-.425781-.125-.859375-.242187-1.292968-.359375-.457032-.128906-.914063-.257812-1.375-.378906-.425782-.109375-.859376-.207031-1.289063-.3125-.472656-.109375-.941406-.226563-1.417969-.332031-.425781-.09375-.855468-.175782-1.285156-.261719-.484375-.097656-.96875-.195313-1.457031-.285156-.425781-.078125-.855469-.148438-1.285157-.21875-.496093-.082031-.988281-.160157-1.488281-.234375-.425781-.0625-.859375-.117188-1.289062-.171875-.503907-.0625-1.007813-.128907-1.511719-.183594-.429688-.046875-.863281-.085937-1.292969-.125-.511719-.046875-1.023437-.089844-1.539062-.128906-.429688-.03125-.859375-.058594-1.292969-.082031-.519531-.03125-1.042969-.054688-1.566406-.074219-.429688-.015625-.859375-.027344-1.289063-.039063-.527343-.007812-1.054687-.015625-1.585937-.015625-.433594 0-.867188 0-1.300782.007813-.53125.007812-1.0625.023437-1.59375.039062-.433593.015625-.871093.03125-1.308593.054688-.195313.007812-.394531.011718-.589844.023437l-13.34375-23.433593c-1.992187-3.5-6.441406-4.71875-9.9375-2.726563s-4.71875 6.441406-2.726563 9.9375l12.777344 22.441406c-12.90625 12.445313-48.554687 51.550781-47.078125 102.480469-4.613281 1.152344-9.417969 1.402344-13.582031 1.402344h-129.464844v-11.433594c0-44.9375-36.558594-81.492188-81.492187-81.492188h-47.035157c-9.273437 0-18.421874 1.394532-27.195312 4.140626-3.839844 1.203124-5.976562 5.292968-4.773438 9.132812 1.203126 3.839844 5.289063 5.980469 9.132813 4.773438 7.359375-2.304688 15.046875-3.472657 22.839844-3.472657h47.03125c36.898437 0 66.917969 30.019531 66.917969 66.917969v11.4375h-188.15625c-.289063 0-.558594-.058594-.808594-.164062-.742188-.316407-1.265625-1.054688-1.265625-1.914063 0-22.167969 9.625-43.207031 26.410156-57.722656 3.042969-2.628907 3.378906-7.234375.746094-10.277344-2.632813-3.042969-7.234375-3.375-10.277344-.746094-3.984375 3.445313-7.625 7.203125-10.90625 11.21875 15.625-47.214843 60.175781-81.375 112.5625-81.375h114.035156l-14.871093 40.523438c-7.03125 19.160156-4.410157 40.726562 7.015624 57.691406 11.339844 16.839844 29.371094 26.886719 49.476563 27.566406.746094.023438 1.496094.039063 2.246094.039063h39.726562c14.570313 0 27.160157-10.316406 30.039063-24.574219 13.5625-50.324219-5.753906-117.480469-16.277344-147.9375h17.296875l17.839844 31.332031c1.992187 3.496094 6.4375 4.714844 9.9375 2.726563 3.496093-1.992188 4.714843-6.441407 2.726562-9.9375l-13.734375-24.117188h15.527344c7.109375 0 12.890625-5.785156 12.890625-12.894531v-34.230469c0-4.003906-1.808594-7.707031-4.964844-10.167969-3.152343-2.460937-7.1875-3.308593-11.070312-2.339843l-61.621094 15.484375 1.628906-.410156-2.382812-2.894532c.652343-.652344 1.210937-1.40625 1.613281-2.269531 1.308594-2.800781.882812-6.15625-1.082031-8.546875l-15.378907-18.65625c-2.453124-2.976562-6.113281-4.671875-9.933593-4.625l-31.933594.320312c-6.246094.027344-11.320313 5.113282-11.320313 11.363282v7.601562c0 9.671875 7.867188 17.535156 17.589844 17.535156l33.320313-.246093 7.394531 8.976562c-1.265625 2.34375-1.976562 5.015625-1.976562 7.828125v12.9375l-31.007813 5.835938c-4.015625.757812-6.65625 4.625-5.898437 8.636718.667968 3.550782 3.769531 6.027344 7.257812 6.027344.453125 0 .914062-.039062 1.375-.128906l34.769531-6.546875c1.695313.894531 3.617188 1.40625 5.660157 1.40625h.027343c9.476563 26.304687 31.003907 95.058594 17.597657 144.363281-.046876.175782-.089844.355469-.125.535156-1.453126 7.554688-8.089844 13.039063-15.785157 13.039063h-39.722656c-.589844 0-1.175781-.011719-1.757813-.03125-15.375-.519531-29.183593-8.222656-37.878906-21.140625-8.953125-13.296875-10.933594-29.527344-5.425781-44.527344l16.335937-44.511718h3.375c2.421876 0 4.691407-1.078126 6.222657-2.953126 1.535156-1.875 2.136719-4.316406 1.652343-6.691406-.804687-3.929687-3.347656-14.109375-9.648437-23.746094-8.613281-13.167968-20.910156-20.128906-35.554687-20.128906h-47.804688c-5.070312 0-9.429688 3.105469-11.269531 7.515625-4.925781-33.5625-32.320313-59.914062-66.371094-63.238281v-7.652344c0-4.023437-3.261719-7.285156-7.285156-7.285156-4.027344 0-7.289063 3.261719-7.289063 7.285156v7.648438c-36.605468 3.570312-65.519531 33.773437-67.085937 70.925781-7.265625.898437-12.914063 7.097656-12.914063 14.601563v7.957031c0 8.121093 6.605469 14.722656 14.722656 14.722656h23.355469v17.628906c-28.390625 24.425781-46.394531 60.601563-46.394531 100.90625v20.371094c0 9.179687 7.46875 16.648437 16.648438 16.648437h25.761718c4.78125 35.238282 34.75 61.914063 71.070313 61.914063 36.320312 0 66.285156-26.675781 71.066406-61.914063h164.296875c7.5625 0 14.226562-.925781 20.007812-2.726562 3.585938 36.238281 34.234376 64.640625 71.398438 64.640625 39.5625 0 71.75-32.1875 71.75-71.75 0-21.917969-10.035156-42.1875-26.386719-55.570313zm-106.144531-178.554687 12.941406-3.253906v30.398437h-12.941406zm-101.394531-17.582031c-1.632813 0-2.964844-1.328125-2.964844-2.960938v-4.425781l27.9375-.277344 6.128906 7.433594zm53.363281 44.726562v-13.59375c0-.875.589844-1.632812 1.4375-1.84375l32.019531-8.046875v23.484375zm-148.546875 46.539063v-23.1875h45.441406c16.480469 0 24.601563 13.5625 28.316407 23.335937h-73.757813zm-121.921875 21.441406v-6.71875h11.617188c-3.996094 2.046875-7.871094 4.292969-11.617188 6.71875zm34.632812-100.710937c31.917969 0 58.082032 25.09375 59.792969 56.585937h-119.585937c1.714844-31.492187 27.878906-56.585937 59.792968-56.585937zm-72.566406 79.417968c-.082031 0-.148437-.066406-.148437-.148437v-7.960938c0-.082031.066406-.148437.148437-.148437h145.136719c.082031 0 .148437.066406.148437.148437v7.960938c0 .082031-.066406.148437-.148437.148437zm118.046875 170.128906c-4.070312 11.378907-14.992187 19.476563-27.601562 19.476563s-23.53125-8.097656-27.601563-19.476563zm-27.601562 47.339844c-28.253907 0-51.6875-20.257812-56.328125-47.339844h13.574218c4.507813 19.554688 22.117188 34.046876 42.753907 34.046876 20.632812 0 38.246093-14.492188 42.75-34.046876h13.578125c-4.644532 27.085938-28.074219 47.339844-56.328125 47.339844zm265.804687-77.285156c-.25.660156-.53125 1.285156-.828125 1.898438-.023437.046874-.046875.09375-.070312.140624-.050781.109376-.109375.21875-.164063.324219-.257812.507813-.535156.992188-.824218 1.46875-.054688.085938-.109376.171875-.164063.253907 3.339844-43.5 36.789063-76.921876 44.574219-84.144532.027344 0 .054687-.003906.082031-.007812.300781-.023438.601563-.039063.90625-.058594.488281-.035156.976563-.070312 1.464844-.09375.296875-.011719.59375-.015625.890625-.027344.488281-.015625.976562-.03125 1.464844-.039062.300781-.003906.601562 0 .902343.003906.476563 0 .957031 0 1.429688.011719.3125.007812.621093.023437.933593.035156.460938.015625.921876.03125 1.382813.058594.320313.019531.636719.046875.957031.070312.445313.035157.890625.066407 1.332032.105469.332031.03125.660156.070312.988281.109375.429687.046875.855469.089844 1.28125.148437.339843.042969.671875.09375 1.007812.144532.414063.058594.828125.117187 1.238281.1875.34375.058594.6875.121094 1.03125.183594.394532.074218.792969.144531 1.183594.226562.351563.070312.699219.148438 1.050782.226562.378906.082032.761718.167969 1.140624.257813.355469.085937.707032.179687 1.058594.269531.367188.097656.734375.191406 1.097656.292969.359376.101563.71875.207031 1.078126.3125.351562.105469.699218.210937 1.046874.320313.363282.113281.726563.234374 1.085938.359374.335938.113282.675781.230469 1.007812.347657.367188.132812.730469.265625 1.09375.402343.324219.125.644532.246094.964844.375.367188.148438.730469.296876 1.09375.449219.3125.132813.621094.265625.933594.402344.363281.160156.722656.324219 1.085938.492187.300781.140626.597656.28125.898437.429688.363281.175781.722656.351562 1.082031.539062.289063.144532.574219.296876.863282.449219.359374.191407.714843.382813 1.070312.582031.28125.15625.558594.316407.832031.476563.355469.203125.710938.414063 1.058594.625.269531.164063.539063.332031.804687.5.347657.21875.695313.441406 1.042969.667969.257813.171875.515625.347656.773438.523437.339843.234375.683593.46875 1.019531.710938.253906.179687.503906.367187.753906.550781.332032.246094.667969.496094.996094.75.246094.1875.484375.382812.726562.578125.324219.257813.648438.515625.964844.78125.242188.199219.476563.40625.710938.609375.316406.269531.628906.539062.933594.816406.234374.210938.460937.425782.691406.640625.300781.28125.605468.558594.898437.847657.226563.222656.449219.445312.667969.667968.292969.292969.582031.585938.867188.882813.21875.230469.433593.46875.648437.699219.277344.304687.558594.605468.828125.910156.214844.242187.417969.492187.628906.734375.265625.3125.53125.621093.789063.9375.203125.253906.402343.511719.605469.765625.25.320312.503906.640625.75.964844.199218.265624.390624.535156.582031.800781.238281.328125.480469.65625.710937.988281.191406.273438.371094.554688.558594.832031.226562.339844.453125.671875.671875 1.015625.175781.273438.339844.554688.511719.832032.21875.359374.441406.710937.652344 1.074218.132812.226563.253906.457032.382812.6875.238281.414063.476562.828125.699219 1.253906-.652344.011719-1.324219.027344-2.011719.046876-.253906.003906-.519531.015624-.78125.023437-.4375.015625-.871094.027344-1.320312.046875-.480469.019531-.976563.042969-1.46875.066406-.246094.011719-.480469.023438-.726563.035156-.605469.03125-1.226563.070313-1.847656.109376-.148438.007812-.289063.015624-.4375.027343-.652344.042969-1.320313.089844-1.992188.144531-.128906.007813-.25.015626-.378906.027344-.679687.050782-1.378906.113282-2.078125.175782-.125.011718-.246094.023437-.371094.035156-.75.070312-1.511718.148437-2.285156.230468-.078125.007813-.152344.011719-.230469.019532-.789062.085937-1.585937.179687-2.394531.277344-.066406.007812-.128906.015624-.195312.023437-.8125.101563-1.636719.207031-2.46875.324219-.0625.007812-.121094.015625-.183594.023437-.84375.117188-1.699219.242188-2.558594.375-.050781.007813-.097656.015625-.148438.023438-.875.136719-1.757812.28125-2.644531.433593-.039062.007813-.078125.011719-.117187.019532-.863282.148437-1.730469.308594-2.605469.472656-.074219.015625-.144531.027344-.214844.039062-.867187.164063-1.738281.34375-2.613281.523438-.082031.019531-.164062.035156-.242188.050781-.867187.183594-1.738281.375-2.613281.574219-.09375.023438-.191406.042969-.285156.0625-.867187.199219-1.738281.410156-2.609375.628906-.109375.023438-.214844.050782-.320312.074219-.855469.214844-1.714844.441406-2.574219.675781-.128907.035156-.257813.066406-.390625.101563-.839844.230469-1.6875.472656-2.53125.71875-.152344.042969-.300782.085937-.453125.128906-.820313.242187-1.640625.5-2.464844.761719-.179687.054687-.359375.109375-.539063.164062-.800781.257813-1.605468.527344-2.410156.800782-.203125.070312-.40625.136718-.609375.207031-.785156.269531-1.570312.558593-2.355469.847656-.222656.082031-.445312.15625-.667968.242187-.769532.285157-1.535156.585938-2.300782.886719-.242187.097657-.488281.1875-.730468.285157-.738282.300781-1.476563.613281-2.214844.925781-.273438.113281-.542969.226562-.816406.34375-.710938.304687-1.421875.628906-2.132813.953125-.296875.136718-.59375.265625-.886719.402344-.6875.320312-1.371093.65625-2.054687.988281-.320313.15625-.640625.304687-.957031.464843-.660156.332032-1.316406.675782-1.972656 1.019532-.339844.179687-.683594.351562-1.019532.535156-.632812.339844-1.265625.695312-1.894531 1.046875-.359375.203125-.71875.398437-1.078125.605469-.609375.351562-1.214844.71875-1.820312 1.085937-.375.222657-.75.441407-1.121094.671875-.585938.363282-1.167969.742188-1.75 1.121094-.386719.246094-.773438.492188-1.160156.746094-.558594.375-1.113282.761718-1.671876 1.144531-.398437.277344-.800781.550781-1.199218.835937-.484375.34375-.960938.699219-1.4375 1.054688-.226563.167969-.449219.332031-.675782.5-.238281.179688-.476562.351562-.714843.535156-.269531.207032-.535157.417969-.804688.628906-.398437.308594-.792969.628907-1.183593.945313-.265626.210937-.53125.417969-.789063.632813-.132813.109374-.265625.214843-.394531.324218-.71875.59375-1.429688 1.203125-2.136719 1.824219-.046875.042969-.09375.089844-.144531.132813-.097656.089843-.199219.171874-.300782.261718-5.644531 5.035156-10.113281 11.570313-12.910156 18.890625.003906.003907.003906.007813 0 .011719zm79.375 6.585938-7.054687-13.5c10.539062 4.445312 17.957031 14.882812 17.957031 27.023437 0 16.164063-13.148438 29.3125-29.3125 29.3125s-29.3125-13.148437-29.3125-29.3125c0-2.542969.320312-5.023437.941406-7.414063l7.523438 14.402344c2.742187 5.242188 7.359375 9.105469 13.003906 10.875 2.1875.683594 4.421875 1.027344 6.652344 1.027344 3.523437 0 7.015625-.851562 10.230468-2.53125 10.820313-5.65625 15.027344-19.0625 9.371094-29.882812zm-16.121094 16.96875c-1.792968.9375-3.84375 1.117187-5.773437.511718-1.929687-.605468-3.507813-1.925781-4.445313-3.71875l-13.96875-26.730468c-.007812-.015626-.015624-.03125-.023437-.046876l-5.238281-10.019531c.992187-.632812 2-1.246093 3.027344-1.847656.078124-.046875.15625-.09375.238281-.140625.941406-.546875 1.902343-1.082031 2.875-1.605469.230469-.125.464843-.246093.695312-.367187.875-.464844 1.765625-.917969 2.664063-1.359375.351562-.171875.703125-.335938 1.054687-.503907.640625-.308593 1.292969-.609374 1.945313-.90625.289062-.132812.578125-.261718.867187-.390624l5.355469 10.246093c.050781.105469.105469.203125.160156.304688l13.769532 26.355469c1.933593 3.699218.496093 8.285156-3.203126 10.21875zm-2.289062 53.730468c-31.527344 0-57.175781-25.648437-57.175781-57.175781 0-.199219 0-.398437.003906-.601563 1.570313-1.371093 3.003906-2.878906 4.296875-4.519531.089844-.113281.175781-.222656.261719-.335937.496093-.640625.96875-1.300782 1.421875-1.984375.25-.375.496094-.753907.730468-1.140625.195313-.320313.390626-.636719.578126-.964844.191406-.335938.371093-.675781.550781-1.015625.078125-.148437.160156-.296875.238281-.445313.113281-.230468.234375-.457031.34375-.6875.101562-.203124.195312-.410156.289062-.617187.023438-.050781.046876-.101563.070313-.152344.074219-.160156.15625-.324219.230469-.488281.277344-.628906.546875-1.269531.796875-1.921875.003906-.015625.011719-.027344.015625-.042969.054687-.136718.117187-.265625.167968-.402344.71875-1.8125 1.582032-3.5625 2.585938-5.21875 1.574219-2.597656 3.496094-4.964843 5.683594-7.046874l2.015625 3.863281c-4.53125 7.046875-6.992188 15.304687-6.992188 23.71875 0 24.199219 19.6875 43.886719 43.886719 43.886719s43.886719-19.6875 43.886719-43.886719c0-23.328125-18.300781-42.457031-41.300781-43.800781l-2.585938-4.949219c7.378906-2.226563 14.472656-3.648438 20.714844-4.546875 21.878906 8.503906 36.460937 29.707031 36.460937 53.296875 0 31.53125-25.648437 57.179687-57.175781 57.179687zm0 0"/></svg>