<svg viewBox="0 -33 512 512" xmlns="http://www.w3.org/2000/svg"><path d="m233.667969 339.535156h-18.761719c-4.140625 0-7.5 3.359375-7.5 7.5s3.359375 7.5 7.5 7.5h18.761719c4.140625 0 7.5-3.359375 7.5-7.5s-3.359375-7.5-7.5-7.5zm0 0"/><path d="m181.453125 239.511719h-17.882813c-23.542968 0-45.691406 9.152343-62.371093 25.765625-7.558594 7.53125-16.078125 13.992187-25.324219 19.207031-5.148438 2.90625-7.765625 8.9375-6.367188 14.667969 3.375 13.8125 15.664063 23.460937 29.882813 23.460937h82.0625c5.8125 0 10.539063-4.726562 10.539063-10.539062v-62.023438c0-5.8125-4.726563-10.539062-10.539063-10.539062zm-4.460937 68.101562h-77.601563c-6.839844 0-12.808594-4.355469-14.945313-10.75 9.960938-5.753906 19.152344-12.800781 27.339844-20.957031 13.847656-13.796875 32.238282-21.394531 51.785156-21.394531h13.421876zm0 0"/><path d="m358.945312 292.859375c-3.144531-1.730469-6.25-3.625-9.230468-5.640625l-48.203125-32.5625c-14.664063-9.90625-31.769531-15.144531-49.46875-15.144531h-36.878907c-5.328124 0-9.664062 4.335937-9.664062 9.664062v63.773438c0 5.328125 4.335938 9.664062 9.664062 9.664062h143.824219c6.074219 0 11.042969-4.917969 11.078125-10.964843.039063-7.796876-4.222656-14.996094-11.121094-18.789063zm-138.445312 14.753906v-53.101562h31.542969c14.691406 0 28.894531 4.347656 41.070312 12.574219l48.203125 32.5625c3.359375 2.269531 6.859375 4.40625 10.398438 6.355468.761718.417969 1.414062.96875 1.9375 1.609375zm0 0"/><path d="m91.050781 374.988281c-6.546875 0-12.703125 2.550781-17.335937 7.183594-4.625 4.625-7.171875 10.78125-7.171875 17.335937 0 6.550782 2.546875 12.710938 7.171875 17.335938 4.628906 4.628906 10.789062 7.179688 17.335937 7.179688 6.550781 0 12.707031-2.550782 17.335938-7.179688 4.628906-4.628906 7.179687-10.785156 7.179687-17.335938 0-6.546874-2.546875-12.707031-7.179687-17.335937-4.628907-4.632813-10.785157-7.183594-17.335938-7.183594zm6.726563 31.25c-1.792969 1.796875-4.183594 2.785157-6.726563 2.785157s-4.933593-.988282-6.730469-2.789063c-1.789062-1.789063-2.777343-4.179687-2.777343-6.726563 0-2.546874.988281-4.9375 2.777343-6.730468 1.800782-1.796875 4.191407-2.789063 6.730469-2.789063 2.542969 0 4.933594.992188 6.730469 2.789063s2.785156 4.1875 2.785156 6.730468c0 2.542969-.988281 4.929688-2.789062 6.730469zm0 0"/><path d="m420.050781 374.988281c-6.546875 0-12.703125 2.550781-17.335937 7.183594-4.625 4.625-7.171875 10.78125-7.171875 17.335937 0 6.550782 2.546875 12.710938 7.171875 17.335938 4.628906 4.628906 10.789062 7.179688 17.335937 7.179688 6.550781 0 12.707031-2.550782 17.335938-7.179688 4.632812-4.628906 7.183593-10.785156 7.183593-17.335938 0-6.546874-2.550781-12.707031-7.183593-17.335937-4.628907-4.632813-10.785157-7.183594-17.335938-7.183594zm6.730469 31.25c-1.796875 1.796875-4.1875 2.785157-6.730469 2.785157s-4.933593-.988282-6.730469-2.789063c-1.792968-1.789063-2.777343-4.179687-2.777343-6.726563 0-2.546874.984375-4.9375 2.777343-6.730468 1.796876-1.796875 4.1875-2.789063 6.730469-2.789063s4.933594.992188 6.730469 2.789063 2.785156 4.1875 2.785156 6.730468c0 2.542969-.988281 4.929688-2.785156 6.730469zm0 0"/><path d="m505.683594 327.253906-2.300782-3.824218c-.003906-.003907-.003906-.003907-.007812-.007813-8.707031-14.445313-23.183594-24.613281-39.726562-27.902344l-66.511719-13.226562c-13.308594-2.644531-26.300781-10.6875-34.914063-16.507813l-48.199218-32.5625c-.523438-.351562-1.054688-.683594-1.578126-1.023437h107.039063c10.6875 0 19.382813-8.695313 19.382813-19.382813v-54.871094c10.730468-5.308593 18.128906-16.371093 18.128906-29.132812v-13.117188c0-.015624 0-.035156 0-.050781 0-.074219-.011719-.148437-.011719-.222656-.007813-.214844-.019531-.425781-.046875-.632813-.007812-.085937-.027344-.171874-.039062-.257812-.03125-.203125-.070313-.40625-.121094-.605469-.015625-.078125-.035156-.15625-.058594-.234375-.0625-.226562-.136719-.449218-.21875-.664062-.011719-.035156-.019531-.074219-.035156-.109375l-.046875-.121094c-.003907-.007813-.007813-.019531-.011719-.027344l-13.757812-34.511719c-2.109376-5.296874-7.15625-8.71875-12.855469-8.71875h-210.511719c-5.699219 0-10.746094 3.421876-12.855469 8.71875l-13.757812 34.511719c-.003907.007813-.007813.015625-.011719.027344l-.050781.125c-.011719.035156-.019531.070313-.035157.109375-.082031.214844-.15625.4375-.21875.664062-.019531.074219-.039062.152344-.058593.230469-.046875.199219-.089844.402344-.121094.605469-.011719.085938-.027344.171875-.039063.257812-.023437.207032-.039062.421876-.042968.632813-.003906.074219-.011719.148437-.011719.222656 0 .015625-.003906.035157-.003906.050781v13.117188c0 14.226562 9.195312 26.339844 21.949219 30.726562v53.277344c0 .480469.042968.957032.078124 1.433594h-50.535156c-29.496094 0-57.246094 11.464844-78.140625 32.285156-13.167969 13.117188-29.742187 22.0625-47.9375 25.875l-10.460937 2.191406c-15.652344 3.277344-27.011719 17.265626-27.011719 33.257813v19.066406c-.0039062.097657-.015625.191407-.015625.289063v30.003906c0 .097656.0117188.195312.015625.292969v12.925781c0 8.503906 5.019531 16.226562 12.792969 19.679688l31.613281 14.054687c1.03125 10.40625 5.519531 20.53125 13.476563 28.488281 9.140624 9.140625 21.148437 13.710938 33.15625 13.710938 12.003906 0 24.011718-4.570313 33.152343-13.710938 7.230469-7.230468 11.589844-16.253906 13.097657-25.652344h236.464843c1.546875 9.671876 6.070313 18.589844 13.128907 25.652344 8.855468 8.855469 20.628906 13.734375 33.15625 13.734375 12.519531 0 24.296874-4.878906 33.148437-13.734375 7.0625-7.0625 11.585937-15.980468 13.132813-25.652344h18.429687c15.015625 0 27.234375-12.21875 27.234375-27.238281v-29.796875c0-8.003906-2.183594-15.863281-6.316406-22.71875zm-81.816406-114.4375c0 2.417969-1.96875 4.382813-4.382813 4.382813h-142.042969c-8.265625-1.945313-16.773437-2.949219-25.398437-2.949219h-22.769531c-.148438-.417969-.25-.890625-.25-1.433594v-51.828125c8.21875-1.132812 15.46875-5.34375 20.535156-11.4375 5.964844 7.175781 14.953125 11.753907 24.992187 11.753907 10.039063 0 19.027344-4.578126 24.992188-11.753907 5.964843 7.175781 14.953125 11.753907 24.992187 11.753907 10.039063 0 19.027344-4.578126 24.992188-11.753907 5.964844 7.175781 14.953125 11.753907 24.992187 11.753907 10.039063 0 19.027344-4.578126 24.992188-11.753907 5.835937 7.019531 14.574219 11.546875 24.351562 11.734375v51.53125zm-166.808594-84.003906v-5.617188h34.984375v5.617188c0 9.644531-7.847657 17.492188-17.492188 17.492188s-17.492187-7.847657-17.492187-17.492188zm49.984375 0v-5.617188h34.984375v5.617188c0 9.644531-7.847656 17.492188-17.492188 17.492188-9.644531 0-17.492187-7.847657-17.492187-17.492188zm49.984375 0v-5.617188h34.984375v5.617188c0 9.644531-7.847657 17.492188-17.492188 17.492188s-17.492187-7.847657-17.492187-17.492188zm84.96875-5.617188v5.617188c0 8.40625-5.964844 15.445312-13.886719 17.113281-.125.027344-.253906.042969-.382813.066407-.390624.074218-.78125.136718-1.179687.183593-.160156.015625-.320313.035157-.480469.046875-.511718.046875-1.03125.082032-1.558594.082032-9.648437 0-17.492187-7.847657-17.492187-17.492188v-5.617188zm-221.929688-38.65625h208.9375l9.429688 23.65625h-227.796875zm-12.992187 44.273438v-5.617188h34.984375v5.617188c0 9.644531-7.84375 17.492188-17.492188 17.492188-.5 0-.992187-.035157-1.484375-.078126-.171875-.011718-.339843-.027343-.519531-.046874-8.703125-1-15.488281-8.402344-15.488281-17.367188zm-192.058594 205.902344h9.90625v15.003906h-9.90625zm98.582031 87.339844c-12.433594 12.433593-32.660156 12.433593-45.09375 0-12.433594-12.433594-12.433594-32.664063 0-45.09375 6.214844-6.21875 14.382813-9.324219 22.546875-9.324219 8.167969 0 16.332031 3.105469 22.546875 9.324219 12.433594 12.433593 12.433594 32.660156 0 45.09375zm329 0c-6.019531 6.019531-14.027344 9.339843-22.546875 9.339843-8.515625 0-16.523437-3.320312-22.546875-9.339843-6.023437-6.023438-9.339844-14.03125-9.339844-22.546876 0-8.519531 3.316407-16.527343 9.339844-22.546874 6.023438-6.023438 14.03125-9.339844 22.546875-9.339844 8.519531 0 16.523438 3.316406 22.546875 9.339844 6.023438 6.019531 9.339844 14.027343 9.339844 22.546874 0 8.515626-3.316406 16.523438-9.339844 22.546876zm54.402344-42.285157c0 6.75-5.488281 12.238281-12.234375 12.238281h-18.429687c-1.546876-9.671874-6.070313-18.59375-13.128907-25.65625-8.855469-8.855468-20.632812-13.730468-33.152343-13.730468-12.527344 0-24.300782 4.875-33.15625 13.730468-7.058594 7.0625-11.582032 15.984376-13.128907 25.65625h-236.464843c-1.511719-9.398437-5.871094-18.425781-13.101563-25.65625-18.277344-18.28125-48.023437-18.277343-66.304687 0-6.261719 6.265626-10.378907 13.875-12.351563 21.90625l-26.648437-11.847656c-2.359376-1.046875-3.882813-3.390625-3.882813-5.972656v-5.71875h13.15625c6.476563 0 11.75-5.269531 11.75-11.75v-21.503906c0-6.480469-5.273437-11.75-11.75-11.75h-13.15625v-11.855469c0-8.933594 6.34375-16.746094 15.089844-18.578125l10.460937-2.191406c21.042969-4.40625 40.214844-14.757813 55.445313-29.929688 18.0625-18 42.054687-27.910156 67.554687-27.910156h88.476563c7.527343 0 14.949219.886719 22.160156 2.597656.285156.09375.582031.164063.882813.21875 10.824218 2.679688 21.148437 7.242188 30.539062 13.585938l48.199219 32.5625c10.511719 7.101562 24.597656 15.652344 40.386719 18.792968l66.511718 13.226563c7.359375 1.460937 14.164063 4.75 19.851563 9.4375-10.425781 1.816406-18.382813 10.925781-18.382813 21.867187v11.496094c0 6.652344 5.414063 12.066406 12.070313 12.066406h22.738281zm0-29.667969h-19.804688v-8.5625c0-3.972656 3.230469-7.207031 7.203126-7.207031h8.039062l.398438.664063c2.726562 4.519531 4.164062 9.699218 4.164062 14.976562zm0 0"/><path d="m159.585938 49.929688h8.839843v136.921874c0 4.144532 3.359375 7.5 7.5 7.5s7.5-3.355468 7.5-7.5v-136.921874h286.039063v223.398437c0 4.140625 3.355468 7.5 7.5 7.5 4.140625 0 7.5-3.359375 7.5-7.5v-223.398437h8.839844c6.085937 0 11.039062-4.953126 11.039062-11.039063v-27.851563c0-6.085937-4.953125-11.039062-11.039062-11.039062h-333.71875c-6.085938 0-11.039063 4.953125-11.039063 11.039062v27.851563c0 6.085937 4.953125 11.039063 11.039063 11.039063zm3.960937-34.929688h325.796875v19.929688h-325.796875zm0 0"/></svg>