<svg viewBox="-31 0 512 512.00003" xmlns="http://www.w3.org/2000/svg"><path d="m449.765625 482.792969-17.097656-100.089844c-4.574219-26.769531-24.429688-48.777344-50.589844-56.066406l-87.53125-24.394531c-3.6875-1.027344-7.625-.746094-11.109375.710937-.992188-1.164063-1.859375-2.507813-2.554688-3.941406h9.34375c14.789063 0 28.984376-6.273438 38.945313-17.210938 9.957031-10.933593 14.878906-25.652343 13.496094-40.378906l-4.085938-43.585937c4.410157-3.933594 7.203125-9.636719 7.203125-15.992188v-10.808594c0-6.320312-2.765625-12.195312-7.425781-16.21875v-88.570312c0-24.636719-16.769531-45.6875-40.785156-51.195313l-57.363281-13.15625c-11.222657-2.574219-23.074219-2.523437-34.273438.140625l-53.808594 12.8125c-23.765625 5.65625-40.363281 26.667969-40.363281 51.097656v88.894532c-4.539063 3.9375-7.429687 9.730468-7.429687 16.195312v10.808594c0 6.355469 2.796874 12.058594 7.207031 15.992188l-4.085938 43.585937c-1.382812 14.726563 3.539063 29.445313 13.496094 40.378906 9.957031 10.9375 24.152344 17.210938 38.945313 17.210938h9.339843c-.695312 1.433593-1.558593 2.777343-2.550781 3.941406-3.488281-1.457031-7.421875-1.738281-11.109375-.710937l-87.53125 24.394531c-26.160156 7.289062-46.019531 29.296875-50.589844 56.066406l-.960937 5.609375c-.691406 4.070312 2.042968 7.933594 6.113281 8.628906.425781.074219.847656.109375 1.265625.109375 3.578125 0 6.738281-2.578125 7.363281-6.222656l.957031-5.605469c3.601563-21.09375 19.25-38.4375 39.867188-44.183594l11.308594-3.152343v95.3125l-2.21875 1.789062c-.867188.703125-1.566406 1.589844-2.046875 2.59375l-5.328125 11.15625c-.480469 1.007813-.730469 2.109375-.730469 3.222657v45.085937h-48.046875c-2.96875 0-5.765625-1.300781-7.679688-3.566406-1.910156-2.265625-2.722656-5.246094-2.222656-8.167969l10.273438-60.152344c.695312-4.070312-2.039063-7.933594-6.109375-8.628906-4.066407-.691406-7.933594 2.039062-8.628907 6.109375l-10.273437 60.152344c-1.242187 7.277343.773437 14.6875 5.535156 20.328125 4.757813 5.644531 11.722657 8.878906 19.105469 8.878906h400.125c7.382812 0 14.34375-3.234375 19.105469-8.878906 4.757812-5.640625 6.777343-13.050782 5.535156-20.328125zm-114.367187-153.644531 11.152343 3.109374 5.238281 1.457032v87.394531l-15.222656-12.292969c-.378906-.304687-.769531-.597656-1.167968-.878906zm-17.28125-57.414063c-7.238282 7.945313-17.140626 12.324219-27.890626 12.324219h-11.195312v-13.40625c6.886719-5.589844 12.5625-11.726563 17.09375-17.492188 13.707031-17.433594 21.101562-36.640625 23.0625-49.867187h4.890625l3.703125 39.527343c1.003906 10.699219-2.429688 20.96875-9.664062 28.914063zm-45.964844 73.570313c2.003906 4.222656 4.339844 12.125 3 15.6875-.21875.582031-.460938.835937-1.035156 1.085937-2.203126.953125-10.71875.460937-27.789063-7.304687v-25.367188c17.007813-7.738281 25.515625-8.253906 27.761719-7.316406.113281.0625.230468.117187.347656.175781.347656.207031.542969.460937.714844.921875 1.339844 3.558594-.996094 11.464844-2.992188 15.671875-.972656 2.03125-.972656 4.410156-.007812 6.445313zm-53.992188-30.773438c-2.53125 0-4.910156.664062-6.976562 1.820312-11.78125-5.464843-21.546875-8.566406-29.238282-9.304687 2.527344-4.625 4-9.886719 4.085938-15.144531 0-.015625.003906-.035156.003906-.050782.007813-.136718.011719-.292968.011719-.414062v-10.847656c10.890625 5.757812 23.847656 9.617187 39.015625 9.617187s28.125-3.859375 39.015625-9.617187v10.847656c0 .121094.003906.273438.011719.410156 0 .015625.003906.035156.003906.054688.082031 5.257812 1.554688 10.519531 4.085938 15.140625-7.691407.742187-17.457032 3.84375-29.238282 9.308593-2.066406-1.15625-4.445312-1.820312-6.976562-1.820312zm13.21875 14.953125v25.210937h-12.632812v-25.210937zm-53.414062 9.375c-1.734375-3.617187-4.390625-11.925781-2.992188-15.664063.171875-.464843.367188-.722656.71875-.929687.117188-.058594.234375-.113281.347656-.175781.5-.207032 1.3125-.347656 2.464844-.347656 4.003906 0 12.089844 1.65625 25.292969 7.664062v25.367188c-17.070313 7.765624-25.582031 8.261718-27.789063 7.304687-.574218-.246094-.816406-.5-1.035156-1.085937-1.339844-3.558594.996094-11.464844 2.992188-15.671876.976562-2.042968.976562-4.417968 0-6.460937zm89.433594-78.125c-.226563.152344-.441407.316406-.648438.488281-10.75 7.945313-24.566406 14.03125-41.6875 14.03125s-30.9375-6.085937-41.691406-14.03125c-.203125-.171875-.421875-.335937-.644532-.488281-6.945312-5.238281-12.582031-11.234375-16.972656-16.816406-13.25-16.851563-20.402344-36.914063-20.402344-47.238281v-51.863282c.425782-.105468.847657-.222656 1.269532-.351562 21.277344-6.535156 42.976562-10.433594 64.558594-11.59375 15.628906 16.386718 44.023437 35.289062 93.59375 39.96875v23.839844c0 10.320312-7.152344 30.382812-20.40625 47.238281-4.386719 5.582031-10.027344 11.574219-16.96875 16.816406zm-34.015626-128.085937c23.480469.761718 46.988282 4.710937 70.117188 11.816406.53125.164062 1.0625.300781 1.59375.425781.136719.03125.277344.0625.414062.09375.5.109375 1 .207031 1.503907.285156.035156.003907.074219.011719.109375.019531.527344.078126 1.058594.132813 1.585937.179688.148438.011719.292969.019531.441407.03125.476562.03125.953124.050781 1.425781.054688.054687 0 .101562.003906.152343.003906h.042969c.460938 0 .917969-.015625 1.371094-.042969.152344-.011719.300781-.027344.449219-.035156.316406-.027344.636718-.054688.953125-.09375.171875-.019531.339843-.042969.511719-.066407.308593-.042968.617187-.089843.925781-.144531.15625-.03125.3125-.054687.46875-.085937.398437-.082032.796875-.171875 1.195312-.269532.054688-.015624.113281-.027343.167969-.042968.449219-.117188.894531-.246094 1.335938-.390625.144531-.046875.285156-.097657.425781-.144531.308593-.105469.617187-.21875.921875-.335938.15625-.058594.316406-.125.472656-.1875.300781-.125.601562-.257812.898438-.394531.140624-.0625.28125-.125.421874-.191407.417969-.203124.832032-.414062 1.246094-.640624.011719-.003907.019532-.007813.027344-.011719.011719-.007813.019531-.011719.027344-.015625.277344-.15625.550781-.3125.820312-.476563v16.855469c-3.484375-.011719-7.054687-.132812-10.679687-.367188-38.429688-2.488281-63.386719-13.789062-79.347657-25.828124zm97.453126 41.003906v8.191406c0 3.582031-2.914063 6.496094-6.496094 6.496094h-4.613282v-14.597656c3.785157.089843 7.503907.058593 11.109376-.089844zm-204.121094-107.707032c0-17.476562 11.875-32.507812 28.875-36.554687l53.8125-12.808594c8.976562-2.136719 18.472656-2.175781 27.464844-.113281l57.367187 13.15625c17.175781 3.9375 29.171875 19 29.171875 36.621094v34.921875c-46.136719-15.621094-93.226562-20.171875-140.132812-13.53125-4.085938.578125-6.933594 4.359375-6.351563 8.449219.578125 4.089843 4.355469 6.933593 8.449219 6.355468 45.664062-6.46875 91.554687-1.742187 136.507812 14.023438l-1.867187 6.941406c-.691407 2.570312-2.355469 4.695312-4.683594 5.984375-2.300781 1.269531-4.941406 1.546875-7.4375.78125 0-.003906-.003906-.003906-.003906-.003906-30.917969-9.496094-62.5-13.667969-93.875-12.398438-23.996094.96875-48.144531 5.140625-71.777344 12.398438 0 0-.003906 0-.003906.003906-.296875.089844-.597657.164063-.898438.226563-.894531.179687-1.816406.230468-2.757812.144531-.070313-.007813-.136719-.007813-.207031-.011719-1.234376-.136719-2.445313-.519531-3.574219-1.140625-2.328125-1.289063-3.992188-3.414063-4.683594-5.984375l-1.867187-6.933594c7.816406-2.742187 15.710937-5.175781 23.554687-7.242187 3.992187-1.050781 6.375-5.140625 5.324219-9.132813-1.050782-3.992187-5.144532-6.378906-9.132813-5.328125-7.082031 1.867188-14.203125 4.007813-21.273437 6.402344zm0 76.035157c.277344.167969.558594.335937.84375.496093.925781.511719 1.875.957032 2.839844 1.34375v5.765626h-3.683594zm-7.425782 39.863281v-10.808594c0-3.582031 2.914063-6.5 6.496094-6.5h4.613282v23.804688h-4.613282c-3.582031 0-6.496094-2.914063-6.496094-6.496094zm40.605469 102.214844c-10.746093 0-20.652343-4.378906-27.886719-12.324219-7.234374-7.945313-10.667968-18.214844-9.664062-28.917969l3.703125-39.523437h4.890625c1.960938 13.226562 9.355469 32.433593 23.0625 49.867187 4.53125 5.761719 10.210938 11.902344 17.09375 17.492188v13.40625zm-30.230469 40.925781 29.929688-8.339844c.59375-.164062 1.238281-.042969 1.730469.324219.019531.011719.035156.023438.050781.035156-.140625.316406-.289062.628906-.410156.957032-3.128906 8.363281-.011719 18.71875 2.117187 24.128906-2.128906 5.414062-5.246093 15.765625-2.117187 24.132812 1.644531 4.398438 4.792968 7.714844 9.101562 9.578125 2.351563 1.019531 5.160156 1.527344 8.414063 1.527344 8.136719 0 19.085937-3.183594 32.703125-9.5 2.066406 1.15625 4.445312 1.820313 6.976562 1.820313h13.800782c2.535156 0 4.910156-.664063 6.980468-1.820313 13.617188 6.316406 24.5625 9.5 32.699219 9.5 3.257813 0 6.066406-.507813 8.417969-1.527344 4.308594-1.863281 7.457031-5.179687 9.101562-9.578125 3.125-8.367187.007813-18.71875-2.117187-24.132812 2.125-5.410156 5.242187-15.765625 2.117187-24.128906-.125-.328126-.269531-.640626-.410156-.957032.015625-.011718.03125-.023437.050781-.035156.492188-.367188 1.136719-.488281 1.730469-.324219l29.914062 8.339844v78.992187h-190.78125zm-31.339843 8.734375 5.839843-1.628906 10.550782-2.9375v78.796875c-.398438.277343-.78125.566406-1.15625.867187l-15.234375 12.304688zm263.804687 163.328125h-274.132812v-43.390625l3.871094-8.101562 31.082031-25.105469c.285156-.226563.59375-.429688.90625-.609375.257812-.144532.535156-.269532.820312-.382813.816407-.335937 1.695313-.527343 2.589844-.527343h195.59375c.894531 0 1.769531.191406 2.589844.527343.28125.113281.558593.238281.816406.382813.292969.167968.574219.355468.835937.566406.023438.015625.050782.027344.070313.046875l31.085937 25.105469 3.871094 8.097656zm70.671875-3.566406c-1.910156 2.265625-4.710937 3.566406-7.675781 3.566406h-48.046875v-45.085937c0-1.113282-.25-2.214844-.730469-3.222657l-5.328125-11.15625c-.480469-1.003906-1.179687-1.890625-2.050781-2.59375l-2.226562-1.796875v-95.308594l11.320312 3.15625c20.617188 5.742188 36.261719 23.085938 39.867188 44.179688l17.097656 100.09375c.496094 2.921875-.3125 5.898438-2.226563 8.167969zm0 0"/></svg>